<svg width="64" height="64" viewBox="0 0 64 64" fill="none" xmlns="http://www.w3.org/2000/svg">
<rect width="64" height="64" fill="white"/>
<mask id="mask0_198_57" style="mask-type:alpha" maskUnits="userSpaceOnUse" x="10" y="6" width="44" height="52">
<path fill-rule="evenodd" clip-rule="evenodd" d="M31.723 9.52966C31.9018 9.39335 32.1497 9.39335 32.3285 9.52966L50.6915 23.5289C50.9533 23.7284 50.9533 24.1221 50.6915 24.3217L32.0258 38.5517L13.36 24.3217C13.0982 24.1221 13.0982 23.7284 13.36 23.5289L31.723 9.52966ZM49.5698 38.8745L42.782 33.6998L42.6511 33.6L35.7325 38.8745H49.5698ZM44.7162 32.0257L52.2114 37.7397C53.7873 38.9411 53.7873 41.311 52.2114 42.5124L33.8485 56.5116C32.7721 57.3322 31.2794 57.3322 30.2031 56.5116L11.8401 42.5124C10.2642 41.311 10.2642 38.9411 11.8401 37.7397L19.3353 32.0257L11.8401 26.3116C10.2642 25.1102 10.2642 22.7403 11.8401 21.5389L30.2031 7.53974C31.2794 6.71918 32.7721 6.71918 33.8485 7.53974L52.2114 21.5389C53.7873 22.7403 53.7873 25.1102 52.2114 26.3116L44.7162 32.0257ZM21.4004 33.6L21.2695 33.6998L13.36 39.7296C13.0982 39.9292 13.0982 40.3229 13.36 40.5225L31.723 54.5217C31.9018 54.658 32.1497 54.658 32.3285 54.5217L49.5698 41.3776H32.0258H31.6024L31.2658 41.121L21.4004 33.6Z" fill="black"/>
</mask>
<g mask="url(#mask0_198_57)">
<path d="M10.4833 6.83691H53.4294V57.2575H10.4833V6.83691Z" fill="black"/>
</g>
</svg>
